#!OML:ASF X:\für Bonn\!DataBase\2005_08_11_Bastian_Final\c3d\Bastian.ASF
:FULLY-SPECIFIED
:DEGREES
47
root -1.29024 17.7444 -7.56353 168.825 -6.65788 -176.036
lowerback 14.9987 -2.89083 1.32345
upperback 2.63597 -3.89157 1.56372
thorax -5.56769 -2.07707 1.67665
lowerneck 5.11612 -3.70285 -8.97034
upperneck 1.3253 -5.31823 7.97808
head 0.0180973 -2.72529 4.30416
rclavicle 8.87092e-014 -3.47873e-014
rhumerus 217.265 194.797 223.376
rradius 46.0399
rwrist -75.6423
rhand -56.6031 -5.15391
rfingers 7.12502
rthumb -28.9124 -32.9327
lclavicle 8.87092e-014 -3.47873e-014
lhumerus -324.014 -25.0839 280.675
lradius 39.7273
lwrist 70.0428
lhand -61.6302 30.0614
lfingers 7.12502
lthumb -33.7024 56.9107
rfemur -0.707094 7.06817 29.4481
rtibia 28.2675
rfoot -9.75132 -6.67335
rtoes 4.12266
lfemur 6.62297 0.786153 -14.6036
ltibia 25.7178
lfoot -13.5255 -4.28406
ltoes -25.163
48
root -1.29774 17.7462 -7.63224 168.877 -6.39126 -176.119
lowerback 14.771 -2.90283 1.30783
upperback 2.63256 -3.9114 1.56302
thorax -5.44577 -2.08581 1.67376
lowerneck 5.19841 -3.59924 -9.07763
upperneck 1.30091 -5.19174 7.9503
head -0.0145014 -2.66391 4.31842
rclavicle -3.22746e-014 1.22253e-014
rhumerus 213.971 193.857 225.605
rradius 46.1126
rwrist -77.4487
rhand -57.4403 -3.94168
rfingers 7.12502
rthumb -29.7118 -31.5807
lclavicle -3.22746e-014 1.22253e-014
lhumerus -326.543 -28.3538 280.593
lradius 39.8467
lwrist 70.8967
lhand -61.7165 31.1466
lfingers 7.12502
lthumb -33.7844 57.9779
rfemur -0.459408 7.15669 29.429
rtibia 28.238
rfoot -9.96975 -6.55856
rtoes 4.05161
lfemur 6.41346 0.8342 -14.7357
ltibia 25.472
lfoot -13.647 -3.99196
ltoes -24.9686
49
root -1.30489 17.7474 -7.69623 168.943 -6.1286 -176.199
lowerback 14.5936 -2.91077 1.25362
upperback 2.60425 -3.9279 1.57263
thorax -5.37455 -2.09115 1.70691
lowerneck 5.27579 -3.49501 -9.05262
upperneck 1.26947 -5.05647 7.8511
head -0.0550549 -2.59672 4.28047
rclavicle -4.31767e-014 4.87022e-015
rhumerus 210.895 193.006 227.09
rradius 46.2759
rwrist -79.2659
rhand -58.4675 -2.76176
rfingers 7.12502
rthumb -30.6918 -30.2215
lclavicle -4.31767e-014 4.87022e-015
lhumerus -329.464 -30.7704 282.05
lradius 39.84
lwrist 71.4234
lhand -62.0088 31.7001
lfingers 7.12502
lthumb -34.062 58.4701
rfemur -0.245492 7.26299 29.4034
rtibia 28.206
rfoot -10.1639 -6.42642
rtoes 4.13842
lfemur 6.16903 0.977455 -14.8373
ltibia 25.2945
lfoot -13.8455 -3.7809
ltoes -25.3286
50
root -1.31316 17.7463 -7.75188 168.985 -5.86209 -176.269
lowerback 14.5103 -2.92639 1.21502
upperback 2.58205 -3.95283 1.58383
thorax -5.34888 -2.10177 1.74046
lowerneck 5.24033 -3.39277 -9.01851
upperneck 1.27178 -4.91722 7.73837
head -0.0651816 -2.52607 4.23202
rclavicle -1.2629e-014 -2.38542e-015
rhumerus 207.927 192.248 227.973
rradius 46.5819
rwrist -81.0457
rhand -59.7256 -1.72597
rfingers 7.12502
rthumb -31.8906 -28.9538
lclavicle -1.2629e-014 -2.38542e-015
lhumerus -332.768 -32.5541 284.509
lradius 39.8051
lwrist 72.0791
lhand -62.6616 31.8258
lfingers 7.12502
lthumb -34.6819 58.4556
rfemur -0.0456599 7.29662 29.3673
rtibia 28.1834
rfoot -10.3425 -6.2345
rtoes 4.07801
lfemur 5.94391 1.05297 -14.9557
ltibia 25.1615
lfoot -14.1067 -3.47876
ltoes -25.8444
51
root -1.32242 17.7462 -7.80163 169.046 -5.58486 -176.327
lowerback 14.4562 -2.93449 1.19042
upperback 2.55126 -3.96437 1.60641
thorax -5.34851 -2.10588 1.77789
lowerneck 5.12288 -3.30419 -8.94206
upperneck 1.32177 -4.78939 7.59178
head -0.0457872 -2.45963 4.16015
rclavicle 4.20492e-014 -1.47101e-014
rhumerus 205.126 191.512 228.399
rradius 46.8449
rwrist -82.6834
rhand -61.034 -0.865586
rfingers 7.12502
rthumb -33.1357 -27.8371
lclavicle 4.20492e-014 -1.47101e-014
lhumerus -336.348 -33.8618 287.623
lradius 39.7639
lwrist 72.8509
lhand -63.6039 31.679
lfingers 7.12502
lthumb -35.5756 58.0987
rfemur 0.0992104 7.36843 29.3356
rtibia 28.1719
rfoot -10.5021 -6.06392
rtoes 4.0353
lfemur 5.70877 1.21113 -15.0456
ltibia 25.0664
lfoot -14.3634 -3.15072
ltoes -26.4145
